<svg xmlns="http://www.w3.org/2000/svg" viewBox="0 0 400 500">
<defs><linearGradient id="bg" x1="0" y1="0" x2="0" y2="1"><stop offset="0" stop-color="#F3E7D0"/><stop offset="1" stop-color="#E8D4B0"/></linearGradient></defs>
<rect width="400" height="500" fill="url(#bg)"/>
<circle cx="330" cy="70" r="120" fill="#FFFFFF" opacity=".25"/>
<ellipse cx="200" cy="392" rx="150" ry="26" fill="#1F3D2B" opacity=".08"/><circle cx="200" cy="292" r="138" fill="#FBF7EF"/><circle cx="200" cy="292" r="118" fill="none" stroke="#1F3D2B" stroke-opacity=".06" stroke-width="2"/><ellipse cx="190.0" cy="355" rx="96" ry="26" fill="#9C6A34" opacity=".5"/><ellipse cx="190.0" cy="350" rx="96" ry="26" fill="#CF9550"/><ellipse cx="190.0" cy="347" rx="80" ry="19" fill="none" stroke="#F3D39A" stroke-width="2" stroke-dasharray="3 6" opacity=".8"/><ellipse cx="208.4" cy="340" rx="96" ry="26" fill="#9C6A34" opacity=".5"/><ellipse cx="208.4" cy="335" rx="96" ry="26" fill="#D9A15A"/><ellipse cx="208.4" cy="332" rx="80" ry="19" fill="none" stroke="#F3D39A" stroke-width="2" stroke-dasharray="3 6" opacity=".8"/><ellipse cx="195.8" cy="325" rx="96" ry="26" fill="#9C6A34" opacity=".5"/><ellipse cx="195.8" cy="320" rx="96" ry="26" fill="#CF9550"/><ellipse cx="195.8" cy="317" rx="80" ry="19" fill="none" stroke="#F3D39A" stroke-width="2" stroke-dasharray="3 6" opacity=".8"/><ellipse cx="194.2" cy="310" rx="96" ry="26" fill="#9C6A34" opacity=".5"/><ellipse cx="194.2" cy="305" rx="96" ry="26" fill="#D9A15A"/><ellipse cx="194.2" cy="302" rx="80" ry="19" fill="none" stroke="#F3D39A" stroke-width="2" stroke-dasharray="3 6" opacity=".8"/><ellipse cx="204.6" cy="295" rx="96" ry="26" fill="#9C6A34" opacity=".5"/><ellipse cx="204.6" cy="290" rx="96" ry="26" fill="#CF9550"/><ellipse cx="204.6" cy="287" rx="80" ry="19" fill="none" stroke="#F3D39A" stroke-width="2" stroke-dasharray="3 6" opacity=".8"/><ellipse cx="200.7" cy="280" rx="96" ry="26" fill="#9C6A34" opacity=".5"/><ellipse cx="200.7" cy="275" rx="96" ry="26" fill="#D9A15A"/><ellipse cx="200.7" cy="272" rx="80" ry="19" fill="none" stroke="#F3D39A" stroke-width="2" stroke-dasharray="3 6" opacity=".8"/><g transform="translate(270 130) rotate(-25) scale(0.85)"><path d="M0 0 C 18 -22 46 -24 64 -6 C 44 10 18 12 0 0 Z" fill="#4F7A4A"/><path d="M4 -1 C 24 -6 42 -8 60 -6" stroke="#1F3D2B" stroke-opacity=".35" stroke-width="1.5" fill="none"/></g>
</svg>
